<svg width="24" height="24" viewBox="0 0 24 24" fill="none" xmlns="http://www.w3.org/2000/svg">
<path d="M16.1904 2.75C17.8611 2.75008 19.1046 3.2452 19.9297 4.07031C20.7548 4.89543 21.2499 6.13894 21.25 7.80957V13H13.5V2.75H16.1904Z" stroke="#A4A7AE" stroke-width="1.5"/>
<path d="M10.5 11V21.25H7.80957C6.13894 21.2499 4.89543 20.7548 4.07031 19.9297C3.2452 19.1046 2.75008 17.8611 2.75 16.1904V11H10.5Z" stroke="#A4A7AE" stroke-width="1.5"/>
<path d="M7.80957 2.75H10.5V8H2.75V7.80957C2.75008 6.13894 3.2452 4.89543 4.07031 4.07031C4.89543 3.2452 6.13894 2.75008 7.80957 2.75Z" stroke="#A4A7AE" stroke-width="1.5"/>
<path d="M21.25 16V16.1904C21.2499 17.8611 20.7548 19.1046 19.9297 19.9297C19.1046 20.7548 17.8611 21.2499 16.1904 21.25H13.5V16H21.25Z" stroke="#A4A7AE" stroke-width="1.5"/>
</svg>
