<svg width="24" height="24" viewBox="0 0 24 24" fill="none" xmlns="http://www.w3.org/2000/svg">
<path d="M16.1301 2.36011H6.49012C4.36012 2.36011 2.63012 4.10011 2.63012 6.22011V20.3101C2.63012 22.1101 3.92012 22.8701 5.50012 22.0001L10.3801 19.2901C10.9001 19.0001 11.7401 19.0001 12.2501 19.2901L17.1301 22.0001C18.7101 22.8801 20.0001 22.1201 20.0001 20.3101V6.22011C19.9901 4.10011 18.2601 2.36011 16.1301 2.36011ZM14.3201 10.1101C13.3501 10.4601 12.3301 10.6401 11.3101 10.6401C15.8098 12.8601 17.2798 8.71011 16.3098 8.36011C15.9198 8.22011 7.50012 7.50011 8.57058 8.70011C8.00012 8.50011 8.18058 8.56011 8.57058 8.70011C8.57058 8.70011 12.2001 9.28011 13.8101 8.70011C14.2001 8.56011 14.6301 8.76011 14.7701 9.15011C14.9101 9.54011 14.7101 9.97011 14.3201 10.1101Z" fill="#FDFDFD"/>
</svg>
