<svg width="24" height="24" viewBox="0 0 24 24" fill="none" xmlns="http://www.w3.org/2000/svg">
<path d="M16.4404 3.59961C19.2317 3.59984 21.4999 5.87347 21.5 8.68945C21.5 9.82507 21.3185 10.8734 21.0039 11.8457L21.0029 11.8486C20.2487 14.2353 18.7033 16.1591 17.0352 17.5928C15.3649 19.0282 13.6004 19.9475 12.459 20.3359L12.4531 20.3379C12.3532 20.3731 12.189 20.3994 12 20.3994C11.811 20.3994 11.6468 20.3731 11.5469 20.3379L11.541 20.3359C10.3996 19.9475 8.63512 19.0282 6.96484 17.5928C5.29669 16.1591 3.75127 14.2353 2.99707 11.8486L2.99609 11.8457L2.88379 11.4775C2.63838 10.61 2.5 9.68311 2.5 8.68945C2.50008 5.87347 4.76829 3.59984 7.55957 3.59961C9.20459 3.59961 10.6795 4.3992 11.5996 5.62891L12 6.16406L12.4004 5.62891C13.3205 4.3992 14.7954 3.59961 16.4404 3.59961Z" fill="#FDFDFD" stroke="#FDFDFD"/>
</svg>
